<svg xmlns="http://www.w3.org/2000/svg" xmlns:xlink="http://www.w3.org/1999/xlink" width="70" height="70" viewBox="0 0 70 70">
  <defs>
    <clipPath id="clip-path">
      <rect id="Rectangle_18179" data-name="Rectangle 18179" width="70" height="70" transform="translate(11394 9277)" fill="#fff"/>
    </clipPath>
  </defs>
  <g id="fees_apply" data-name="fees apply" transform="translate(-11394 -9277)" clip-path="url(#clip-path)">
    <g id="XMLID_139_" transform="translate(11394 9277)">
      <path id="XMLID_170_" d="M68.634,37.735H53.048V13.353a1.366,1.366,0,0,0-.4-.966h0L40.661.4a1.366,1.366,0,0,0-.966-.4H1.366A1.366,1.366,0,0,0,0,1.366v27.5a1.366,1.366,0,0,0,2.733,0V2.733H38.326V13.353a1.366,1.366,0,0,0,1.366,1.366H50.311V37.735H13.946A1.366,1.366,0,0,0,12.58,39.1V67.267H2.733V41.17A1.366,1.366,0,0,0,0,41.17V68.634A1.366,1.366,0,0,0,1.366,70H68.634A1.366,1.366,0,0,0,70,68.634V39.1A1.366,1.366,0,0,0,68.634,37.735ZM41.062,11.985V4.667l7.318,7.318Zm26.2,55.282H15.313v-26.8H67.266Z"/>
      <path id="XMLID_172_" d="M1.366,339.03A1.366,1.366,0,1,0,0,337.663a1.366,1.366,0,0,0,1.366,1.366Z" transform="translate(0 -302.644)"/>
      <path id="XMLID_1014_" d="M181.722,447.689a4.038,4.038,0,0,1,4.033,4.033,1.366,1.366,0,0,0,1.366,1.366h32.949a1.366,1.366,0,0,0,1.366-1.366,4.038,4.038,0,0,1,4.033-4.033,1.366,1.366,0,0,0,1.366-1.366v-7.788a1.366,1.366,0,0,0-1.366-1.366,4.038,4.038,0,0,1-4.031-4.04,1.366,1.366,0,0,0-1.366-1.366H187.123a1.366,1.366,0,0,0-1.366,1.366,4.037,4.037,0,0,1-4.035,4.035,1.366,1.366,0,0,0-1.366,1.366v7.788a1.366,1.366,0,0,0,1.366,1.372Zm1.366-7.932a6.789,6.789,0,0,0,5.263-5.263h30.492a6.789,6.789,0,0,0,5.262,5.262v5.337a6.789,6.789,0,0,0-5.262,5.262H188.352a6.789,6.789,0,0,0-5.263-5.26Z" transform="translate(-162.309 -388.558)"/>
      <path id="XMLID_1017_" d="M365.9,496.8a5.192,5.192,0,1,0-5.192-5.192A5.192,5.192,0,0,0,365.9,496.8Zm0-7.651a2.459,2.459,0,1,1-2.459,2.459A2.459,2.459,0,0,1,365.9,489.147Z" transform="translate(-324.618 -437.742)"/>
      <path id="XMLID_1018_" d="M77.881,292.4H85.4a1.366,1.366,0,0,0,0-2.733H77.881a1.366,1.366,0,0,0,0,2.733Z" transform="translate(-68.858 -260.677)"/>
      <path id="XMLID_1023_" d="M228.185,291.029a1.366,1.366,0,0,0,1.366,1.366H248.8a1.366,1.366,0,1,0,0-2.733H229.552A1.366,1.366,0,0,0,228.185,291.029Z" transform="translate(-205.352 -260.677)"/>
      <path id="XMLID_1024_" d="M77.881,117.5h5.064a1.366,1.366,0,0,0,0-2.733H77.881a1.366,1.366,0,0,0,0,2.733Z" transform="translate(-68.858 -103.288)"/>
      <path id="XMLID_1025_" d="M212.689,117.5a1.366,1.366,0,0,0,0-2.733H205a1.366,1.366,0,0,0,0,2.733Z" transform="translate(-183.257 -103.288)"/>
      <path id="XMLID_1026_" d="M77.881,204.958H98.4a1.366,1.366,0,1,0,0-2.733H77.881a1.366,1.366,0,0,0,0,2.733Z" transform="translate(-68.858 -181.989)"/>
      <path id="XMLID_1027_" d="M364.711,204.958a1.366,1.366,0,0,0,0-2.733h-6.355a1.366,1.366,0,0,0,0,2.733Z" transform="translate(-321.267 -181.989)"/>
    </g>
  </g>
</svg>
