<svg xmlns="http://www.w3.org/2000/svg" xmlns:xlink="http://www.w3.org/1999/xlink" width="70" height="70" viewBox="0 0 70 70">
  <defs>
    <clipPath id="clip-path">
      <rect id="Rectangle_18177" data-name="Rectangle 18177" width="70" height="70" transform="translate(11230 9277)" fill="#fff"/>
    </clipPath>
  </defs>
  <g id="outline" transform="translate(-11230 -9277)" clip-path="url(#clip-path)">
    <g id="outline-2" data-name="outline" transform="translate(11234.077 9276.999)">
      <path id="Path_1692" data-name="Path 1692" d="M174.147,142.88h25.669a1.167,1.167,0,0,0,0-2.334H174.147a1.167,1.167,0,1,0,0,2.334Z" transform="translate(-160.145 -127.712)"/>
      <path id="Path_1693" data-name="Path 1693" d="M174.147,207.748h25.669a1.167,1.167,0,1,0,0-2.334H174.147a1.167,1.167,0,1,0,0,2.334Z" transform="translate(-160.145 -185.58)"/>
      <path id="Path_1694" data-name="Path 1694" d="M174.147,272.616h25.669a1.167,1.167,0,1,0,0-2.334H174.147a1.167,1.167,0,1,0,0,2.334Z" transform="translate(-160.145 -243.446)"/>
      <path id="Path_1695" data-name="Path 1695" d="M174.147,337.483h25.669a1.167,1.167,0,1,0,0-2.334H174.147a1.167,1.167,0,0,0,0,2.334Z" transform="translate(-160.145 -301.313)"/>
      <path id="Path_1696" data-name="Path 1696" d="M174.147,402.351h9.334a1.167,1.167,0,0,0,0-2.334h-9.334a1.167,1.167,0,0,0,0,2.334Z" transform="translate(-160.145 -359.18)"/>
      <path id="Path_1697" data-name="Path 1697" d="M114.149,49.191a3.5,3.5,0,0,0-4.789,1.25l-2.814,4.8V26.29a1.166,1.166,0,0,0-1.166-1.166H96.528a45.748,45.748,0,0,0-3.649-3.45,1.164,1.164,0,0,0-.338-.05H58.709a1.166,1.166,0,0,0-1.166,1.166v3.649a4.668,4.668,0,0,0,0,9.038V38.11a4.668,4.668,0,0,0,0,9.038v2.624a4.668,4.668,0,0,0,0,9.038v1.462a4.668,4.668,0,0,0,0,9.038V76.46a1.166,1.166,0,0,0,1.166,1.166h1.166v3.5a1.166,1.166,0,0,0,1.166,1.166h29.65l-.8,1.365a1.158,1.158,0,0,0-.143.4s0,.012,0,.019v.019h0l-.934,6.189a1.166,1.166,0,0,0,1.869,1.1l4.962-3.853c.318-.247.473-.4.449-.6l2.716-4.635h6.573a1.166,1.166,0,0,0,1.166-1.166V69.081L115.4,53.974a3.5,3.5,0,0,0-1.25-4.789Zm-2.064,1.892a1.166,1.166,0,0,1,1.3,1.716l-.591,1.007-2.012-1.18.591-1.007a1.158,1.158,0,0,1,.711-.541ZM94.508,85.012,92.5,83.832l15.338-26.173,2.012,1.18Zm-.8-59.407L97.9,29.795H93.712Zm15.3,30.04.589-1.007,2.014,1.18-.591,1.007Zm-4.8-28.19v31.5a1.171,1.171,0,0,0,.022.226l-2.355,4.02V30.957a1.164,1.164,0,0,0-.341-.824h0l-2.676-2.676Zm-44.337-3.5h31.5v7a1.166,1.166,0,0,0,1.166,1.166h7V67.187L94.793,75.3H59.876V69.312a4.664,4.664,0,0,0,3.353-3.354,1.168,1.168,0,1,0-2.261-.581,2.326,2.326,0,0,1-1.092,1.435v-8a4.664,4.664,0,0,0,3.353-3.354,1.168,1.168,0,1,0-2.261-.581,2.326,2.326,0,0,1-1.092,1.435V47.144a4.664,4.664,0,0,0,3.353-3.358,1.168,1.168,0,0,0-2.261-.581,2.326,2.326,0,0,1-1.092,1.435V35.476a4.664,4.664,0,0,0,3.353-3.354,1.168,1.168,0,1,0-2.261-.581,2.326,2.326,0,0,1-1.092,1.435Zm-3.5,7a2.334,2.334,0,0,1,1.166-2.018v4.037a2.334,2.334,0,0,1-1.168-2.018Zm0,11.668a2.334,2.334,0,0,1,1.166-2.018v4.035a2.334,2.334,0,0,1-1.168-2.016Zm0,11.668a2.334,2.334,0,0,1,1.166-2.018v4.035a2.334,2.334,0,0,1-1.168-2.016Zm0,10.5a2.334,2.334,0,0,1,1.166-2.018V66.81a2.334,2.334,0,0,1-1.168-2.016ZM62.211,79.96V77.628H93.428l-1.368,2.334ZM91.8,86.127l1.053.618-1.3,1.008Zm12.417-6.166h-4.041l4.039-6.892Z" transform="translate(-54.04 -21.623)"/>
    </g>
  </g>
</svg>
