<svg xmlns="http://www.w3.org/2000/svg" xmlns:xlink="http://www.w3.org/1999/xlink" width="70" height="70" viewBox="0 0 70 70">
  <defs>
    <clipPath id="clip-path">
      <rect id="Rectangle_18178" data-name="Rectangle 18178" width="70" height="70" transform="translate(11312 9277)" fill="#fff"/>
    </clipPath>
  </defs>
  <g id="time" transform="translate(-11312 -9277)" clip-path="url(#clip-path)">
    <g id="time-2" data-name="time" transform="translate(11316.939 9277)">
      <path id="Path_1689" data-name="Path 1689" d="M65.41,21.921l2.975-5.18a1.031,1.031,0,0,0-.38-1.407L63.8,12.916a1.031,1.031,0,0,0-1.407.38l-2.975,5.175A29.821,29.821,0,0,0,51,16.23V13.079h2.09a1.031,1.031,0,0,0,1.031-1.031V7.194a1.029,1.029,0,0,0-1.031-1.031H42a1.029,1.029,0,0,0-1.031,1.031v4.855A1.031,1.031,0,0,0,42,13.08h2.09v3.15a29.821,29.821,0,0,0-8.417,2.245L32.7,13.3a1.029,1.029,0,0,0-1.407-.38l-4.21,2.418a1.031,1.031,0,0,0-.38,1.407l2.975,5.183a30.06,30.06,0,1,0,35.731,0Zm-1.745-6.71,2.424,1.4L63.7,20.754q-1.177-.752-2.421-1.4ZM43.027,8.223H52.06v2.8H43.027Zm3.12,4.855h2.794v2.975c-.464-.022-.926-.037-1.4-.037s-.935.014-1.4.037ZM29,16.607l2.424-1.392,2.38,4.143q-1.244.642-2.421,1.4ZM47.544,74.08a28,28,0,1,1,28-28,28,28,0,0,1-28,28Z" transform="translate(-17.482 -6.163)"/>
      <path id="Path_1690" data-name="Path 1690" d="M76.514,79.174a23.263,23.263,0,0,0-.064-23.29.96.96,0,0,0-.047-.1.983.983,0,0,0-.06-.08,23.51,23.51,0,0,0-8.3-8.26.892.892,0,0,0-.088-.064.946.946,0,0,0-.1-.042,23.263,23.263,0,0,0-23.288.064,1.048,1.048,0,0,0-.1.049.946.946,0,0,0-.078.06,23.516,23.516,0,0,0-8.261,8.3.557.557,0,0,0-.11.191,23.263,23.263,0,0,0,.064,23.288,1.019,1.019,0,0,0,.047.1c.014.023.032.039.046.06a23.509,23.509,0,0,0,8.312,8.279,1,1,0,0,0,.091.065c.026.015.054.02.081.034a23.263,23.263,0,0,0,23.338-.066.773.773,0,0,0,.077-.032.88.88,0,0,0,.078-.06,23.514,23.514,0,0,0,8.272-8.331.752.752,0,0,0,.05-.065.847.847,0,0,0,.046-.1ZM67.893,85.4,66.569,83.14a1.031,1.031,0,0,0-1.777,1.041l1.325,2.261a21.131,21.131,0,0,1-8.829,2.4V86.218a1.031,1.031,0,1,0-2.06,0v2.628A21.126,21.126,0,0,1,46.509,86.5l1.312-2.268A1.031,1.031,0,1,0,46.039,83.2l-1.311,2.265a21.45,21.45,0,0,1-6.278-6.244l2.259-1.323a1.031,1.031,0,1,0-1.041-1.777l-2.261,1.325A21.131,21.131,0,0,1,35,68.613H37.63a1.031,1.031,0,1,0,0-2.06H35a21.131,21.131,0,0,1,2.349-8.722l2.268,1.312a1.031,1.031,0,1,0,1.032-1.783L38.386,56.05a21.449,21.449,0,0,1,6.246-6.278l1.324,2.259a1.031,1.031,0,1,0,1.777-1.041l-1.325-2.261a21.12,21.12,0,0,1,8.829-2.4V48.96a1.031,1.031,0,1,0,2.06,0V46.327a21.131,21.131,0,0,1,8.722,2.348L64.7,50.944a1.031,1.031,0,1,0,1.783,1.032L67.8,49.708a21.45,21.45,0,0,1,6.278,6.244l-2.259,1.323a1.031,1.031,0,1,0,1.041,1.777l2.261-1.325a21.141,21.141,0,0,1,2.4,8.829H74.892a1.031,1.031,0,1,0,0,2.06H77.52a21.13,21.13,0,0,1-2.349,8.719L72.9,76.024a1.031,1.031,0,1,0-1.032,1.784l2.265,1.31A21.446,21.446,0,0,1,67.895,85.4Z" transform="translate(-26.199 -27.669)"/>
      <path id="Path_1691" data-name="Path 1691" d="M95.987,77.722a1.031,1.031,0,0,0-1.031-1.031H85.039a4.716,4.716,0,0,0-3.557-3.558V63.216a1.031,1.031,0,0,0-2.06,0v9.918a4.7,4.7,0,1,0,5.618,5.618h9.918a1.031,1.031,0,0,0,1.031-1.031ZM80.451,80.366A2.645,2.645,0,1,1,83.1,77.721a2.645,2.645,0,0,1-2.644,2.645Z" transform="translate(-50.389 -37.805)"/>
    </g>
  </g>
</svg>
